<svg xmlns="http://www.w3.org/2000/svg" viewBox="0 0 1003 1003"><defs><style>.b9ea1410-8684-4139-8f88-3c14da30f2de{fill:none;stroke:#fff;stroke-width:3px;}</style></defs><g id="bc51a8a5-6b61-42d8-9cb1-9527cc532023" data-name="Layer 2"><g id="a4901143-8154-4f15-aa47-fe18b2e849a3" data-name="Color 1"><g id="eabe3a47-0240-4af3-90bd-2940b4185ba8" data-name="g15107"><g id="aac9d40c-69d5-4e58-b72c-c1baa0e16771" data-name="g15089"><path id="b7e2df21-e730-4808-b905-67265486a030" data-name="path15065" class="b9ea1410-8684-4139-8f88-3c14da30f2de" d="M501.5,1001.5s0-95.3,0-250v-500c0-154.7,0-250,0-250"/><path id="b0b3d350-dbba-4657-99ca-31aa72307056" data-name="path15067" class="b9ea1410-8684-4139-8f88-3c14da30f2de" d="M372.09,984.46S396.74,892.41,436.78,743L566.19,260c40-149.42,64.71-241.47,64.72-241.47"/><path id="bf56c808-fcc9-49c3-9926-93594bb84800" data-name="path15069" class="b9ea1410-8684-4139-8f88-3c14da30f2de" d="M251.5,934.51S299.14,852,376.49,718s172.64-299,250-433,125-216.51,125-216.5"/><path id="f634a3a4-5b6f-456c-93bb-598c2f34ccc6" data-name="path15071" class="b9ea1410-8684-4139-8f88-3c14da30f2de" d="M148,855.05s67.37-67.39,176.76-176.78L678.27,324.71C787.66,215.32,855.05,147.94,855.05,148"/><path id="ab52843e-1d08-49c4-8813-8a59af7b24ca" data-name="path15073" class="b9ea1410-8684-4139-8f88-3c14da30f2de" d="M68.49,751.5S151,703.84,285,626.49s299-172.66,433-250l216.51-125"/><path id="b5ca5494-cdb1-43bb-976f-cffcb9469f81" data-name="path15075" class="b9ea1410-8684-4139-8f88-3c14da30f2de" d="M18.54,630.91,260,566.19,743,436.78l241.48-64.69"/><path id="b488709b-3f23-4ce1-a07f-471aaab39b6e" data-name="path15077" class="b9ea1410-8684-4139-8f88-3c14da30f2de" d="M1.5,501.5l250,0h500l250,0"/><path id="ebff769c-e2c8-46fc-9678-49d6198aee66" data-name="path15079" class="b9ea1410-8684-4139-8f88-3c14da30f2de" d="M18.54,372.09S234.77,430,501.5,501.48s483,129.42,483,129.43"/><path id="a87df983-36b7-4131-beba-00b1d71bc13a" data-name="path15081" class="b9ea1410-8684-4139-8f88-3c14da30f2de" d="M68.49,251.5s193.87,111.91,433,250,433,250,433,250"/><path id="f982a177-3fd2-4bba-a1af-563be4f013f0" data-name="path15083" class="b9ea1410-8684-4139-8f88-3c14da30f2de" d="M148,148s158.3,158.27,353.56,353.54S855.06,855.05,855.05,855.05"/><path id="fe1e90be-0753-449b-ac9a-8281ca996021" data-name="path15085" class="b9ea1410-8684-4139-8f88-3c14da30f2de" d="M251.5,68.49s112,193.85,250,433,250,433,250,433"/><path id="bf215c55-adf6-4069-beff-49a2a15d3130" data-name="path15087" class="b9ea1410-8684-4139-8f88-3c14da30f2de" d="M372.09,18.54s58,216.22,129.43,483,129.4,483,129.39,483"/></g><g id="b7855b03-4ccb-472f-b68e-212165f6e3f1" data-name="g15103"><ellipse id="b35666ec-3b5c-4ebd-89e7-5ecc724c1a80" data-name="path15093" class="b9ea1410-8684-4139-8f88-3c14da30f2de" cx="501.5" cy="501.5" rx="467.51" ry="467.53"/><ellipse id="a5c6bf36-5dfe-43b3-a3e1-991e1c630e09" data-name="path15095" class="b9ea1410-8684-4139-8f88-3c14da30f2de" cx="501.5" cy="501.5" rx="411.49" ry="411.51"/><ellipse id="aa79f1d5-6cc4-4620-ab17-b95608e13999" data-name="path15097" class="b9ea1410-8684-4139-8f88-3c14da30f2de" cx="501.5" cy="501.5" rx="331.56" ry="331.58"/><ellipse id="ba251a16-68ff-4e9c-bbed-a8400f6e0cc7" data-name="path15099" class="b9ea1410-8684-4139-8f88-3c14da30f2de" cx="501.5" cy="501.5" rx="232.36" ry="232.38"/><ellipse id="b78166af-f05d-4184-bae1-3157d65cf61c" data-name="path15101" class="b9ea1410-8684-4139-8f88-3c14da30f2de" cx="501.5" cy="501.5" rx="119.66" ry="119.68"/></g><circle id="ad9775a2-cd1d-49ac-b570-018e9b742746" data-name="path15105" class="b9ea1410-8684-4139-8f88-3c14da30f2de" cx="501.5" cy="501.5" r="500"/></g></g></g></svg>