<svg width="38" height="38" viewBox="0 0 38 38" fill="none" xmlns="http://www.w3.org/2000/svg">
<path d="M27.3109 38C26.0843 38 24.868 37.7831 23.6787 37.3511C18.4392 35.4477 13.5759 32.3477 9.61424 28.3862C5.65261 24.4246 2.55261 19.5612 0.649352 14.3217C0.0377406 12.6379 -0.142752 10.8998 0.11307 9.1554C0.352712 7.52147 0.985624 5.93525 1.94345 4.5682C2.90551 3.19513 4.18811 2.0531 5.65253 1.2656C7.21418 0.42585 8.91869 0 10.7189 0C11.2788 0 11.7626 0.391191 11.88 0.938606L13.7438 9.63661C13.8282 10.0305 13.7072 10.4403 13.4224 10.7251L10.2376 13.9099C13.242 19.8832 18.1171 24.7583 24.0904 27.7627L27.2751 24.5779C27.56 24.2931 27.9699 24.1722 28.3637 24.2564L37.0617 26.1203C37.6092 26.2376 38.0003 26.7215 38.0003 27.2814C38.0003 29.0816 37.5744 30.7862 36.7346 32.3478C35.9471 33.8122 34.8051 35.0948 33.432 36.0569C32.065 37.0147 30.4788 37.6476 28.8448 37.8873C28.3328 37.9625 27.8208 37.9999 27.3109 38ZM9.77009 2.42685C7.39556 2.68898 5.28798 3.93358 3.88842 5.9311C2.3146 8.17724 1.94761 10.9399 2.88154 13.5109C6.54067 23.5839 14.4165 31.4597 24.4895 35.1189C27.0604 36.0528 29.8231 35.6859 32.0693 34.112C34.0668 32.7124 35.3114 30.6049 35.5736 28.2303L28.4978 26.7141L25.1717 30.0401C24.8178 30.3941 24.28 30.4881 23.8271 30.2753C16.7626 26.9563 11.0441 21.2379 7.72515 14.1733C7.51238 13.7203 7.60633 13.1826 7.96027 12.8287L11.2863 9.50265L9.77009 2.42685Z" fill="#76CACE"/>
</svg>
