<svg width="64" height="64" viewBox="0 0 64 64" fill="none" xmlns="http://www.w3.org/2000/svg">
<circle cx="32" cy="32" r="32" fill="white"/>
<g clip-path="url(#clip0)">
<path d="M51.9608 23.7601C51.8671 21.6348 51.5234 20.1736 51.0311 18.9075C50.5232 17.5635 49.7418 16.3603 48.718 15.36C47.7178 14.3442 46.5066 13.5549 45.1782 13.0549C43.9048 12.5625 42.4512 12.2189 40.3259 12.1251C38.1847 12.0235 37.5049 12 32.0741 12C26.6434 12 25.9636 12.0235 23.8304 12.1172C21.705 12.2109 20.2438 12.5549 18.978 13.047C17.6338 13.5549 16.4305 14.3363 15.4303 15.36C14.4145 16.3603 13.6254 17.5715 13.1251 18.8998C12.6328 20.1736 12.2891 21.6268 12.1954 23.7522C12.0938 25.8934 12.0703 26.5732 12.0703 32.0039C12.0703 37.4347 12.0938 38.1144 12.1875 40.2477C12.2812 42.3731 12.6252 43.8342 13.1175 45.1003C13.6254 46.4443 14.4145 47.6475 15.4303 48.6478C16.4305 49.6636 17.6417 50.4529 18.9701 50.9529C20.2438 51.4453 21.6971 51.789 23.8227 51.8827C25.9557 51.9767 26.6358 51.9999 32.0665 51.9999C37.4973 51.9999 38.177 51.9767 40.3103 51.8827C42.4357 51.789 43.8968 51.4453 45.1626 50.9529C47.8508 49.9136 49.9762 47.7882 51.0155 45.1003C51.5076 43.8266 51.8516 42.3731 51.9453 40.2477C52.039 38.1144 52.0625 37.4347 52.0625 32.0039C52.0625 26.5732 52.0545 25.8934 51.9608 23.7601ZM48.3587 40.0914C48.2727 42.0449 47.9445 43.0998 47.6711 43.8031C46.9989 45.5457 45.6159 46.9287 43.8733 47.6008C43.1701 47.8743 42.1075 48.2024 40.1617 48.2882C38.0519 48.3822 37.4191 48.4054 32.0821 48.4054C26.745 48.4054 26.1044 48.3822 24.0022 48.2882C22.0487 48.2024 20.9938 47.8743 20.2905 47.6008C19.4234 47.2803 18.634 46.7724 17.9933 46.1082C17.3291 45.4596 16.8212 44.6782 16.5007 43.811C16.2272 43.1078 15.8991 42.0449 15.8134 40.0994C15.7193 37.9896 15.6961 37.3565 15.6961 32.0195C15.6961 26.6824 15.7193 26.0417 15.8134 23.9399C15.8991 21.9864 16.2272 20.9315 16.5007 20.2282C16.8212 19.3608 17.3291 18.5717 18.0013 17.9307C18.6496 17.2665 19.431 16.7586 20.2985 16.4384C21.0017 16.1649 22.0646 15.8368 24.0101 15.7507C26.1199 15.657 26.753 15.6335 32.0897 15.6335C37.4347 15.6335 38.0674 15.657 40.1696 15.7507C42.1231 15.8368 43.178 16.1649 43.8813 16.4384C44.7484 16.7586 45.5378 17.2665 46.1785 17.9307C46.8426 18.5793 47.3506 19.3608 47.6711 20.2282C47.9445 20.9315 48.2727 21.994 48.3587 23.9399C48.4525 26.0497 48.476 26.6824 48.476 32.0195C48.476 37.3565 48.4525 37.9816 48.3587 40.0914Z" fill="#286B89"/>
<path d="M32.0742 21.7285C26.4014 21.7285 21.7987 26.3309 21.7987 32.004C21.7987 37.6771 26.4014 42.2794 32.0742 42.2794C37.7473 42.2794 42.3496 37.6771 42.3496 32.004C42.3496 26.3309 37.7473 21.7285 32.0742 21.7285ZM32.0742 38.6694C28.394 38.6694 25.4088 35.6845 25.4088 32.004C25.4088 28.3234 28.394 25.3385 32.0742 25.3385C35.7547 25.3385 38.7396 28.3234 38.7396 32.004C38.7396 35.6845 35.7547 38.6694 32.0742 38.6694Z" fill="#286B89"/>
<path d="M45.1551 21.3222C45.1551 22.6469 44.0809 23.721 42.7559 23.721C41.4312 23.721 40.3571 22.6469 40.3571 21.3222C40.3571 19.9972 41.4312 18.9233 42.7559 18.9233C44.0809 18.9233 45.1551 19.9972 45.1551 21.3222Z" fill="#286B89"/>
</g>
<defs>
<clipPath id="clip0">
<rect width="40" height="40" fill="white" transform="translate(12 12)"/>
</clipPath>
</defs>
</svg>
