<svg width="148" height="148" viewBox="0 0 148 148" fill="none" xmlns="http://www.w3.org/2000/svg">
<path d="M2.66667 1.33333C2.66667 2.06971 2.06971 2.66667 1.33333 2.66667C0.596954 2.66667 0 2.06971 0 1.33333C0 0.596954 0.596954 0 1.33333 0C2.06971 0 2.66667 0.596954 2.66667 1.33333Z" fill="#76CACE"/>
<path d="M2.66667 54.6667C2.66667 55.403 2.06971 56 1.33333 56C0.596954 56 0 55.403 0 54.6667C0 53.9303 0.596954 53.3333 1.33333 53.3333C2.06971 53.3333 2.66667 53.9303 2.66667 54.6667Z" fill="#76CACE"/>
<path d="M56 1.33333C56 2.06971 55.403 2.66667 54.6667 2.66667C53.9303 2.66667 53.3333 2.06971 53.3333 1.33333C53.3333 0.596954 53.9303 0 54.6667 0C55.403 0 56 0.596954 56 1.33333Z" fill="#76CACE"/>
<path d="M56 54.6667C56 55.403 55.403 56 54.6667 56C53.9303 56 53.3333 55.403 53.3333 54.6667C53.3333 53.9303 53.9303 53.3333 54.6667 53.3333C55.403 53.3333 56 53.9303 56 54.6667Z" fill="#76CACE"/>
<path d="M2.66667 28C2.66667 28.7364 2.06971 29.3333 1.33333 29.3333C0.596954 29.3333 0 28.7364 0 28C0 27.2636 0.596954 26.6667 1.33333 26.6667C2.06971 26.6667 2.66667 27.2636 2.66667 28Z" fill="#76CACE"/>
<path d="M56 28C56 28.7364 55.403 29.3333 54.6667 29.3333C53.9303 29.3333 53.3333 28.7364 53.3333 28C53.3333 27.2636 53.9303 26.6667 54.6667 26.6667C55.403 26.6667 56 27.2636 56 28Z" fill="#76CACE"/>
<path d="M2.66667 14.6667C2.66667 15.403 2.06971 16 1.33333 16C0.596954 16 0 15.403 0 14.6667C0 13.9303 0.596954 13.3333 1.33333 13.3333C2.06971 13.3333 2.66667 13.9303 2.66667 14.6667Z" fill="#76CACE"/>
<path d="M2.66667 68C2.66667 68.7364 2.06971 69.3333 1.33333 69.3333C0.596954 69.3333 0 68.7364 0 68C0 67.2636 0.596954 66.6667 1.33333 66.6667C2.06971 66.6667 2.66667 67.2636 2.66667 68Z" fill="#76CACE"/>
<path d="M56 14.6667C56 15.403 55.403 16 54.6667 16C53.9303 16 53.3333 15.403 53.3333 14.6667C53.3333 13.9303 53.9303 13.3333 54.6667 13.3333C55.403 13.3333 56 13.9303 56 14.6667Z" fill="#76CACE"/>
<path d="M56 68C56 68.7364 55.403 69.3333 54.6667 69.3333C53.9303 69.3333 53.3333 68.7364 53.3333 68C53.3333 67.2636 53.9303 66.6667 54.6667 66.6667C55.403 66.6667 56 67.2636 56 68Z" fill="#76CACE"/>
<path d="M2.66667 41.3333C2.66667 42.0697 2.06971 42.6667 1.33333 42.6667C0.596954 42.6667 0 42.0697 0 41.3333C0 40.597 0.596954 40 1.33333 40C2.06971 40 2.66667 40.597 2.66667 41.3333Z" fill="#76CACE"/>
<path d="M56 41.3333C56 42.0697 55.403 42.6667 54.6667 42.6667C53.9303 42.6667 53.3333 42.0697 53.3333 41.3333C53.3333 40.597 53.9303 40 54.6667 40C55.403 40 56 40.597 56 41.3333Z" fill="#76CACE"/>
<path d="M16 1.33333C16 2.06971 15.403 2.66667 14.6667 2.66667C13.9303 2.66667 13.3333 2.06971 13.3333 1.33333C13.3333 0.596954 13.9303 0 14.6667 0C15.403 0 16 0.596954 16 1.33333Z" fill="#76CACE"/>
<path d="M16 54.6667C16 55.403 15.403 56 14.6667 56C13.9303 56 13.3333 55.403 13.3333 54.6667C13.3333 53.9303 13.9303 53.3333 14.6667 53.3333C15.403 53.3333 16 53.9303 16 54.6667Z" fill="#76CACE"/>
<path d="M69.3333 1.33333C69.3333 2.06971 68.7364 2.66667 68 2.66667C67.2636 2.66667 66.6667 2.06971 66.6667 1.33333C66.6667 0.596954 67.2636 0 68 0C68.7364 0 69.3333 0.596954 69.3333 1.33333Z" fill="#76CACE"/>
<path d="M69.3333 54.6667C69.3333 55.403 68.7364 56 68 56C67.2636 56 66.6667 55.403 66.6667 54.6667C66.6667 53.9303 67.2636 53.3333 68 53.3333C68.7364 53.3333 69.3333 53.9303 69.3333 54.6667Z" fill="#76CACE"/>
<path d="M16 28C16 28.7364 15.403 29.3333 14.6667 29.3333C13.9303 29.3333 13.3333 28.7364 13.3333 28C13.3333 27.2636 13.9303 26.6667 14.6667 26.6667C15.403 26.6667 16 27.2636 16 28Z" fill="#76CACE"/>
<path d="M69.3333 28C69.3333 28.7364 68.7364 29.3333 68 29.3333C67.2636 29.3333 66.6667 28.7364 66.6667 28C66.6667 27.2636 67.2636 26.6667 68 26.6667C68.7364 26.6667 69.3333 27.2636 69.3333 28Z" fill="#76CACE"/>
<path d="M16 14.6667C16 15.403 15.403 16 14.6667 16C13.9303 16 13.3333 15.403 13.3333 14.6667C13.3333 13.9303 13.9303 13.3333 14.6667 13.3333C15.403 13.3333 16 13.9303 16 14.6667Z" fill="#76CACE"/>
<path d="M16 68C16 68.7364 15.403 69.3333 14.6667 69.3333C13.9303 69.3333 13.3333 68.7364 13.3333 68C13.3333 67.2636 13.9303 66.6667 14.6667 66.6667C15.403 66.6667 16 67.2636 16 68Z" fill="#76CACE"/>
<path d="M69.3333 14.6667C69.3333 15.403 68.7364 16 68 16C67.2636 16 66.6667 15.403 66.6667 14.6667C66.6667 13.9303 67.2636 13.3333 68 13.3333C68.7364 13.3333 69.3333 13.9303 69.3333 14.6667Z" fill="#76CACE"/>
<path d="M69.3333 68C69.3333 68.7364 68.7364 69.3333 68 69.3333C67.2636 69.3333 66.6667 68.7364 66.6667 68C66.6667 67.2636 67.2636 66.6667 68 66.6667C68.7364 66.6667 69.3333 67.2636 69.3333 68Z" fill="#76CACE"/>
<path d="M16 41.3333C16 42.0697 15.403 42.6667 14.6667 42.6667C13.9303 42.6667 13.3333 42.0697 13.3333 41.3333C13.3333 40.597 13.9303 40 14.6667 40C15.403 40 16 40.597 16 41.3333Z" fill="#76CACE"/>
<path d="M69.3333 41.3333C69.3333 42.0697 68.7364 42.6667 68 42.6667C67.2636 42.6667 66.6667 42.0697 66.6667 41.3333C66.6667 40.597 67.2636 40 68 40C68.7364 40 69.3333 40.597 69.3333 41.3333Z" fill="#76CACE"/>
<path d="M29.3333 1.33333C29.3333 2.06971 28.7364 2.66667 28 2.66667C27.2636 2.66667 26.6667 2.06971 26.6667 1.33333C26.6667 0.596954 27.2636 0 28 0C28.7364 0 29.3333 0.596954 29.3333 1.33333Z" fill="#76CACE"/>
<path d="M29.3333 54.6667C29.3333 55.403 28.7364 56 28 56C27.2636 56 26.6667 55.403 26.6667 54.6667C26.6667 53.9303 27.2636 53.3333 28 53.3333C28.7364 53.3333 29.3333 53.9303 29.3333 54.6667Z" fill="#76CACE"/>
<path d="M29.3333 28C29.3333 28.7364 28.7364 29.3333 28 29.3333C27.2636 29.3333 26.6667 28.7364 26.6667 28C26.6667 27.2636 27.2636 26.6667 28 26.6667C28.7364 26.6667 29.3333 27.2636 29.3333 28Z" fill="#76CACE"/>
<path d="M29.3333 14.6667C29.3333 15.403 28.7364 16 28 16C27.2636 16 26.6667 15.403 26.6667 14.6667C26.6667 13.9303 27.2636 13.3333 28 13.3333C28.7364 13.3333 29.3333 13.9303 29.3333 14.6667Z" fill="#76CACE"/>
<path d="M29.3333 68C29.3333 68.7364 28.7364 69.3333 28 69.3333C27.2636 69.3333 26.6667 68.7364 26.6667 68C26.6667 67.2636 27.2636 66.6667 28 66.6667C28.7364 66.6667 29.3333 67.2636 29.3333 68Z" fill="#76CACE"/>
<path d="M29.3333 41.3333C29.3333 42.0697 28.7364 42.6667 28 42.6667C27.2636 42.6667 26.6667 42.0697 26.6667 41.3333C26.6667 40.597 27.2636 40 28 40C28.7364 40 29.3333 40.597 29.3333 41.3333Z" fill="#76CACE"/>
<path d="M42.6667 1.33333C42.6667 2.06971 42.0697 2.66667 41.3333 2.66667C40.597 2.66667 40 2.06971 40 1.33333C40 0.596954 40.597 0 41.3333 0C42.0697 0 42.6667 0.596954 42.6667 1.33333Z" fill="#76CACE"/>
<path d="M42.6667 54.6667C42.6667 55.403 42.0697 56 41.3333 56C40.597 56 40 55.403 40 54.6667C40 53.9303 40.597 53.3333 41.3333 53.3333C42.0697 53.3333 42.6667 53.9303 42.6667 54.6667Z" fill="#76CACE"/>
<path d="M42.6667 28C42.6667 28.7364 42.0697 29.3333 41.3333 29.3333C40.597 29.3333 40 28.7364 40 28C40 27.2636 40.597 26.6667 41.3333 26.6667C42.0697 26.6667 42.6667 27.2636 42.6667 28Z" fill="#76CACE"/>
<path d="M42.6667 14.6667C42.6667 15.403 42.0697 16 41.3333 16C40.597 16 40 15.403 40 14.6667C40 13.9303 40.597 13.3333 41.3333 13.3333C42.0697 13.3333 42.6667 13.9303 42.6667 14.6667Z" fill="#76CACE"/>
<path d="M42.6667 68C42.6667 68.7364 42.0697 69.3333 41.3333 69.3333C40.597 69.3333 40 68.7364 40 68C40 67.2636 40.597 66.6667 41.3333 66.6667C42.0697 66.6667 42.6667 67.2636 42.6667 68Z" fill="#76CACE"/>
<path d="M42.6667 41.3333C42.6667 42.0697 42.0697 42.6667 41.3333 42.6667C40.597 42.6667 40 42.0697 40 41.3333C40 40.597 40.597 40 41.3333 40C42.0697 40 42.6667 40.597 42.6667 41.3333Z" fill="#76CACE"/>
<path d="M2.66667 80C2.66667 80.7364 2.06971 81.3333 1.33333 81.3333C0.596954 81.3333 0 80.7364 0 80C0 79.2636 0.596954 78.6667 1.33333 78.6667C2.06971 78.6667 2.66667 79.2636 2.66667 80Z" fill="#76CACE"/>
<path d="M2.66667 133.333C2.66667 134.07 2.06971 134.667 1.33333 134.667C0.596954 134.667 0 134.07 0 133.333C0 132.597 0.596954 132 1.33333 132C2.06971 132 2.66667 132.597 2.66667 133.333Z" fill="#76CACE"/>
<path d="M56 80C56 80.7364 55.403 81.3333 54.6667 81.3333C53.9303 81.3333 53.3333 80.7364 53.3333 80C53.3333 79.2636 53.9303 78.6667 54.6667 78.6667C55.403 78.6667 56 79.2636 56 80Z" fill="#76CACE"/>
<path d="M56 133.333C56 134.07 55.403 134.667 54.6667 134.667C53.9303 134.667 53.3333 134.07 53.3333 133.333C53.3333 132.597 53.9303 132 54.6667 132C55.403 132 56 132.597 56 133.333Z" fill="#76CACE"/>
<path d="M2.66667 106.667C2.66667 107.403 2.06971 108 1.33333 108C0.596954 108 0 107.403 0 106.667C0 105.93 0.596954 105.333 1.33333 105.333C2.06971 105.333 2.66667 105.93 2.66667 106.667Z" fill="#76CACE"/>
<path d="M56 106.667C56 107.403 55.403 108 54.6667 108C53.9303 108 53.3333 107.403 53.3333 106.667C53.3333 105.93 53.9303 105.333 54.6667 105.333C55.403 105.333 56 105.93 56 106.667Z" fill="#76CACE"/>
<path d="M2.66667 93.3333C2.66667 94.0697 2.06971 94.6667 1.33333 94.6667C0.596954 94.6667 0 94.0697 0 93.3333C0 92.597 0.596954 92 1.33333 92C2.06971 92 2.66667 92.597 2.66667 93.3333Z" fill="#76CACE"/>
<path d="M2.66667 146.667C2.66667 147.403 2.06971 148 1.33333 148C0.596954 148 0 147.403 0 146.667C0 145.93 0.596954 145.333 1.33333 145.333C2.06971 145.333 2.66667 145.93 2.66667 146.667Z" fill="#76CACE"/>
<path d="M56 93.3333C56 94.0697 55.403 94.6667 54.6667 94.6667C53.9303 94.6667 53.3333 94.0697 53.3333 93.3333C53.3333 92.597 53.9303 92 54.6667 92C55.403 92 56 92.597 56 93.3333Z" fill="#76CACE"/>
<path d="M56 146.667C56 147.403 55.403 148 54.6667 148C53.9303 148 53.3333 147.403 53.3333 146.667C53.3333 145.93 53.9303 145.333 54.6667 145.333C55.403 145.333 56 145.93 56 146.667Z" fill="#76CACE"/>
<path d="M2.66667 120C2.66667 120.736 2.06971 121.333 1.33333 121.333C0.596954 121.333 0 120.736 0 120C0 119.264 0.596954 118.667 1.33333 118.667C2.06971 118.667 2.66667 119.264 2.66667 120Z" fill="#76CACE"/>
<path d="M56 120C56 120.736 55.403 121.333 54.6667 121.333C53.9303 121.333 53.3333 120.736 53.3333 120C53.3333 119.264 53.9303 118.667 54.6667 118.667C55.403 118.667 56 119.264 56 120Z" fill="#76CACE"/>
<path d="M16 80C16 80.7364 15.403 81.3333 14.6667 81.3333C13.9303 81.3333 13.3333 80.7364 13.3333 80C13.3333 79.2636 13.9303 78.6667 14.6667 78.6667C15.403 78.6667 16 79.2636 16 80Z" fill="#76CACE"/>
<path d="M16 133.333C16 134.07 15.403 134.667 14.6667 134.667C13.9303 134.667 13.3333 134.07 13.3333 133.333C13.3333 132.597 13.9303 132 14.6667 132C15.403 132 16 132.597 16 133.333Z" fill="#76CACE"/>
<path d="M69.3333 80C69.3333 80.7364 68.7364 81.3333 68 81.3333C67.2636 81.3333 66.6667 80.7364 66.6667 80C66.6667 79.2636 67.2636 78.6667 68 78.6667C68.7364 78.6667 69.3333 79.2636 69.3333 80Z" fill="#76CACE"/>
<path d="M69.3333 133.333C69.3333 134.07 68.7364 134.667 68 134.667C67.2636 134.667 66.6667 134.07 66.6667 133.333C66.6667 132.597 67.2636 132 68 132C68.7364 132 69.3333 132.597 69.3333 133.333Z" fill="#76CACE"/>
<path d="M16 106.667C16 107.403 15.403 108 14.6667 108C13.9303 108 13.3333 107.403 13.3333 106.667C13.3333 105.93 13.9303 105.333 14.6667 105.333C15.403 105.333 16 105.93 16 106.667Z" fill="#76CACE"/>
<path d="M69.3333 106.667C69.3333 107.403 68.7364 108 68 108C67.2636 108 66.6667 107.403 66.6667 106.667C66.6667 105.93 67.2636 105.333 68 105.333C68.7364 105.333 69.3333 105.93 69.3333 106.667Z" fill="#76CACE"/>
<path d="M16 93.3333C16 94.0697 15.403 94.6667 14.6667 94.6667C13.9303 94.6667 13.3333 94.0697 13.3333 93.3333C13.3333 92.597 13.9303 92 14.6667 92C15.403 92 16 92.597 16 93.3333Z" fill="#76CACE"/>
<path d="M16 146.667C16 147.403 15.403 148 14.6667 148C13.9303 148 13.3333 147.403 13.3333 146.667C13.3333 145.93 13.9303 145.333 14.6667 145.333C15.403 145.333 16 145.93 16 146.667Z" fill="#76CACE"/>
<path d="M69.3333 93.3333C69.3333 94.0697 68.7364 94.6667 68 94.6667C67.2636 94.6667 66.6667 94.0697 66.6667 93.3333C66.6667 92.597 67.2636 92 68 92C68.7364 92 69.3333 92.597 69.3333 93.3333Z" fill="#76CACE"/>
<path d="M69.3333 146.667C69.3333 147.403 68.7364 148 68 148C67.2636 148 66.6667 147.403 66.6667 146.667C66.6667 145.93 67.2636 145.333 68 145.333C68.7364 145.333 69.3333 145.93 69.3333 146.667Z" fill="#76CACE"/>
<path d="M16 120C16 120.736 15.403 121.333 14.6667 121.333C13.9303 121.333 13.3333 120.736 13.3333 120C13.3333 119.264 13.9303 118.667 14.6667 118.667C15.403 118.667 16 119.264 16 120Z" fill="#76CACE"/>
<path d="M69.3333 120C69.3333 120.736 68.7364 121.333 68 121.333C67.2636 121.333 66.6667 120.736 66.6667 120C66.6667 119.264 67.2636 118.667 68 118.667C68.7364 118.667 69.3333 119.264 69.3333 120Z" fill="#76CACE"/>
<path d="M29.3333 80C29.3333 80.7364 28.7364 81.3333 28 81.3333C27.2636 81.3333 26.6667 80.7364 26.6667 80C26.6667 79.2636 27.2636 78.6667 28 78.6667C28.7364 78.6667 29.3333 79.2636 29.3333 80Z" fill="#76CACE"/>
<path d="M29.3333 133.333C29.3333 134.07 28.7364 134.667 28 134.667C27.2636 134.667 26.6667 134.07 26.6667 133.333C26.6667 132.597 27.2636 132 28 132C28.7364 132 29.3333 132.597 29.3333 133.333Z" fill="#76CACE"/>
<path d="M29.3333 106.667C29.3333 107.403 28.7364 108 28 108C27.2636 108 26.6667 107.403 26.6667 106.667C26.6667 105.93 27.2636 105.333 28 105.333C28.7364 105.333 29.3333 105.93 29.3333 106.667Z" fill="#76CACE"/>
<path d="M29.3333 93.3333C29.3333 94.0697 28.7364 94.6667 28 94.6667C27.2636 94.6667 26.6667 94.0697 26.6667 93.3333C26.6667 92.597 27.2636 92 28 92C28.7364 92 29.3333 92.597 29.3333 93.3333Z" fill="#76CACE"/>
<path d="M29.3333 146.667C29.3333 147.403 28.7364 148 28 148C27.2636 148 26.6667 147.403 26.6667 146.667C26.6667 145.93 27.2636 145.333 28 145.333C28.7364 145.333 29.3333 145.93 29.3333 146.667Z" fill="#76CACE"/>
<path d="M29.3333 120C29.3333 120.736 28.7364 121.333 28 121.333C27.2636 121.333 26.6667 120.736 26.6667 120C26.6667 119.264 27.2636 118.667 28 118.667C28.7364 118.667 29.3333 119.264 29.3333 120Z" fill="#76CACE"/>
<path d="M42.6667 80C42.6667 80.7364 42.0697 81.3333 41.3333 81.3333C40.597 81.3333 40 80.7364 40 80C40 79.2636 40.597 78.6667 41.3333 78.6667C42.0697 78.6667 42.6667 79.2636 42.6667 80Z" fill="#76CACE"/>
<path d="M42.6667 133.333C42.6667 134.07 42.0697 134.667 41.3333 134.667C40.597 134.667 40 134.07 40 133.333C40 132.597 40.597 132 41.3333 132C42.0697 132 42.6667 132.597 42.6667 133.333Z" fill="#76CACE"/>
<path d="M42.6667 106.667C42.6667 107.403 42.0697 108 41.3333 108C40.597 108 40 107.403 40 106.667C40 105.93 40.597 105.333 41.3333 105.333C42.0697 105.333 42.6667 105.93 42.6667 106.667Z" fill="#76CACE"/>
<path d="M42.6667 93.3333C42.6667 94.0697 42.0697 94.6667 41.3333 94.6667C40.597 94.6667 40 94.0697 40 93.3333C40 92.597 40.597 92 41.3333 92C42.0697 92 42.6667 92.597 42.6667 93.3333Z" fill="#76CACE"/>
<path d="M42.6667 146.667C42.6667 147.403 42.0697 148 41.3333 148C40.597 148 40 147.403 40 146.667C40 145.93 40.597 145.333 41.3333 145.333C42.0697 145.333 42.6667 145.93 42.6667 146.667Z" fill="#76CACE"/>
<path d="M42.6667 120C42.6667 120.736 42.0697 121.333 41.3333 121.333C40.597 121.333 40 120.736 40 120C40 119.264 40.597 118.667 41.3333 118.667C42.0697 118.667 42.6667 119.264 42.6667 120Z" fill="#76CACE"/>
<path d="M81.3333 1.33333C81.3333 2.06971 80.7364 2.66667 80 2.66667C79.2636 2.66667 78.6667 2.06971 78.6667 1.33333C78.6667 0.596954 79.2636 0 80 0C80.7364 0 81.3333 0.596954 81.3333 1.33333Z" fill="#76CACE"/>
<path d="M81.3333 54.6667C81.3333 55.403 80.7364 56 80 56C79.2636 56 78.6667 55.403 78.6667 54.6667C78.6667 53.9303 79.2636 53.3333 80 53.3333C80.7364 53.3333 81.3333 53.9303 81.3333 54.6667Z" fill="#76CACE"/>
<path d="M134.667 1.33333C134.667 2.06971 134.07 2.66667 133.333 2.66667C132.597 2.66667 132 2.06971 132 1.33333C132 0.596954 132.597 0 133.333 0C134.07 0 134.667 0.596954 134.667 1.33333Z" fill="#76CACE"/>
<path d="M134.667 54.6667C134.667 55.403 134.07 56 133.333 56C132.597 56 132 55.403 132 54.6667C132 53.9303 132.597 53.3333 133.333 53.3333C134.07 53.3333 134.667 53.9303 134.667 54.6667Z" fill="#76CACE"/>
<path d="M81.3333 28C81.3333 28.7364 80.7364 29.3333 80 29.3333C79.2636 29.3333 78.6667 28.7364 78.6667 28C78.6667 27.2636 79.2636 26.6667 80 26.6667C80.7364 26.6667 81.3333 27.2636 81.3333 28Z" fill="#76CACE"/>
<path d="M134.667 28C134.667 28.7364 134.07 29.3333 133.333 29.3333C132.597 29.3333 132 28.7364 132 28C132 27.2636 132.597 26.6667 133.333 26.6667C134.07 26.6667 134.667 27.2636 134.667 28Z" fill="#76CACE"/>
<path d="M81.3333 14.6667C81.3333 15.403 80.7364 16 80 16C79.2636 16 78.6667 15.403 78.6667 14.6667C78.6667 13.9303 79.2636 13.3333 80 13.3333C80.7364 13.3333 81.3333 13.9303 81.3333 14.6667Z" fill="#76CACE"/>
<path d="M81.3333 68C81.3333 68.7364 80.7364 69.3333 80 69.3333C79.2636 69.3333 78.6667 68.7364 78.6667 68C78.6667 67.2636 79.2636 66.6667 80 66.6667C80.7364 66.6667 81.3333 67.2636 81.3333 68Z" fill="#76CACE"/>
<path d="M134.667 14.6667C134.667 15.403 134.07 16 133.333 16C132.597 16 132 15.403 132 14.6667C132 13.9303 132.597 13.3333 133.333 13.3333C134.07 13.3333 134.667 13.9303 134.667 14.6667Z" fill="#76CACE"/>
<path d="M134.667 68C134.667 68.7364 134.07 69.3333 133.333 69.3333C132.597 69.3333 132 68.7364 132 68C132 67.2636 132.597 66.6667 133.333 66.6667C134.07 66.6667 134.667 67.2636 134.667 68Z" fill="#76CACE"/>
<path d="M81.3333 41.3333C81.3333 42.0697 80.7364 42.6667 80 42.6667C79.2636 42.6667 78.6667 42.0697 78.6667 41.3333C78.6667 40.597 79.2636 40 80 40C80.7364 40 81.3333 40.597 81.3333 41.3333Z" fill="#76CACE"/>
<path d="M134.667 41.3333C134.667 42.0697 134.07 42.6667 133.333 42.6667C132.597 42.6667 132 42.0697 132 41.3333C132 40.597 132.597 40 133.333 40C134.07 40 134.667 40.597 134.667 41.3333Z" fill="#76CACE"/>
<path d="M94.6667 1.33333C94.6667 2.06971 94.0697 2.66667 93.3333 2.66667C92.597 2.66667 92 2.06971 92 1.33333C92 0.596954 92.597 0 93.3333 0C94.0697 0 94.6667 0.596954 94.6667 1.33333Z" fill="#76CACE"/>
<path d="M94.6667 54.6667C94.6667 55.403 94.0697 56 93.3333 56C92.597 56 92 55.403 92 54.6667C92 53.9303 92.597 53.3333 93.3333 53.3333C94.0697 53.3333 94.6667 53.9303 94.6667 54.6667Z" fill="#76CACE"/>
<path d="M148 1.33333C148 2.06971 147.403 2.66667 146.667 2.66667C145.93 2.66667 145.333 2.06971 145.333 1.33333C145.333 0.596954 145.93 0 146.667 0C147.403 0 148 0.596954 148 1.33333Z" fill="#76CACE"/>
<path d="M148 54.6667C148 55.403 147.403 56 146.667 56C145.93 56 145.333 55.403 145.333 54.6667C145.333 53.9303 145.93 53.3333 146.667 53.3333C147.403 53.3333 148 53.9303 148 54.6667Z" fill="#76CACE"/>
<path d="M94.6667 28C94.6667 28.7364 94.0697 29.3333 93.3333 29.3333C92.597 29.3333 92 28.7364 92 28C92 27.2636 92.597 26.6667 93.3333 26.6667C94.0697 26.6667 94.6667 27.2636 94.6667 28Z" fill="#76CACE"/>
<path d="M148 28C148 28.7364 147.403 29.3333 146.667 29.3333C145.93 29.3333 145.333 28.7364 145.333 28C145.333 27.2636 145.93 26.6667 146.667 26.6667C147.403 26.6667 148 27.2636 148 28Z" fill="#76CACE"/>
<path d="M94.6667 14.6667C94.6667 15.403 94.0697 16 93.3333 16C92.597 16 92 15.403 92 14.6667C92 13.9303 92.597 13.3333 93.3333 13.3333C94.0697 13.3333 94.6667 13.9303 94.6667 14.6667Z" fill="#76CACE"/>
<path d="M94.6667 68C94.6667 68.7364 94.0697 69.3333 93.3333 69.3333C92.597 69.3333 92 68.7364 92 68C92 67.2636 92.597 66.6667 93.3333 66.6667C94.0697 66.6667 94.6667 67.2636 94.6667 68Z" fill="#76CACE"/>
<path d="M148 14.6667C148 15.403 147.403 16 146.667 16C145.93 16 145.333 15.403 145.333 14.6667C145.333 13.9303 145.93 13.3333 146.667 13.3333C147.403 13.3333 148 13.9303 148 14.6667Z" fill="#76CACE"/>
<path d="M148 68C148 68.7364 147.403 69.3333 146.667 69.3333C145.93 69.3333 145.333 68.7364 145.333 68C145.333 67.2636 145.93 66.6667 146.667 66.6667C147.403 66.6667 148 67.2636 148 68Z" fill="#76CACE"/>
<path d="M94.6667 41.3333C94.6667 42.0697 94.0697 42.6667 93.3333 42.6667C92.597 42.6667 92 42.0697 92 41.3333C92 40.597 92.597 40 93.3333 40C94.0697 40 94.6667 40.597 94.6667 41.3333Z" fill="#76CACE"/>
<path d="M148 41.3333C148 42.0697 147.403 42.6667 146.667 42.6667C145.93 42.6667 145.333 42.0697 145.333 41.3333C145.333 40.597 145.93 40 146.667 40C147.403 40 148 40.597 148 41.3333Z" fill="#76CACE"/>
<path d="M108 1.33333C108 2.06971 107.403 2.66667 106.667 2.66667C105.93 2.66667 105.333 2.06971 105.333 1.33333C105.333 0.596954 105.93 0 106.667 0C107.403 0 108 0.596954 108 1.33333Z" fill="#76CACE"/>
<path d="M108 54.6667C108 55.403 107.403 56 106.667 56C105.93 56 105.333 55.403 105.333 54.6667C105.333 53.9303 105.93 53.3333 106.667 53.3333C107.403 53.3333 108 53.9303 108 54.6667Z" fill="#76CACE"/>
<path d="M108 28C108 28.7364 107.403 29.3333 106.667 29.3333C105.93 29.3333 105.333 28.7364 105.333 28C105.333 27.2636 105.93 26.6667 106.667 26.6667C107.403 26.6667 108 27.2636 108 28Z" fill="#76CACE"/>
<path d="M108 14.6667C108 15.403 107.403 16 106.667 16C105.93 16 105.333 15.403 105.333 14.6667C105.333 13.9303 105.93 13.3333 106.667 13.3333C107.403 13.3333 108 13.9303 108 14.6667Z" fill="#76CACE"/>
<path d="M108 68C108 68.7364 107.403 69.3333 106.667 69.3333C105.93 69.3333 105.333 68.7364 105.333 68C105.333 67.2636 105.93 66.6667 106.667 66.6667C107.403 66.6667 108 67.2636 108 68Z" fill="#76CACE"/>
<path d="M108 41.3333C108 42.0697 107.403 42.6667 106.667 42.6667C105.93 42.6667 105.333 42.0697 105.333 41.3333C105.333 40.597 105.93 40 106.667 40C107.403 40 108 40.597 108 41.3333Z" fill="#76CACE"/>
<path d="M121.333 1.33333C121.333 2.06971 120.736 2.66667 120 2.66667C119.264 2.66667 118.667 2.06971 118.667 1.33333C118.667 0.596954 119.264 0 120 0C120.736 0 121.333 0.596954 121.333 1.33333Z" fill="#76CACE"/>
<path d="M121.333 54.6667C121.333 55.403 120.736 56 120 56C119.264 56 118.667 55.403 118.667 54.6667C118.667 53.9303 119.264 53.3333 120 53.3333C120.736 53.3333 121.333 53.9303 121.333 54.6667Z" fill="#76CACE"/>
<path d="M121.333 28C121.333 28.7364 120.736 29.3333 120 29.3333C119.264 29.3333 118.667 28.7364 118.667 28C118.667 27.2636 119.264 26.6667 120 26.6667C120.736 26.6667 121.333 27.2636 121.333 28Z" fill="#76CACE"/>
<path d="M121.333 14.6667C121.333 15.403 120.736 16 120 16C119.264 16 118.667 15.403 118.667 14.6667C118.667 13.9303 119.264 13.3333 120 13.3333C120.736 13.3333 121.333 13.9303 121.333 14.6667Z" fill="#76CACE"/>
<path d="M121.333 68C121.333 68.7364 120.736 69.3333 120 69.3333C119.264 69.3333 118.667 68.7364 118.667 68C118.667 67.2636 119.264 66.6667 120 66.6667C120.736 66.6667 121.333 67.2636 121.333 68Z" fill="#76CACE"/>
<path d="M121.333 41.3333C121.333 42.0697 120.736 42.6667 120 42.6667C119.264 42.6667 118.667 42.0697 118.667 41.3333C118.667 40.597 119.264 40 120 40C120.736 40 121.333 40.597 121.333 41.3333Z" fill="#76CACE"/>
<path d="M81.3333 80C81.3333 80.7364 80.7364 81.3333 80 81.3333C79.2636 81.3333 78.6667 80.7364 78.6667 80C78.6667 79.2636 79.2636 78.6667 80 78.6667C80.7364 78.6667 81.3333 79.2636 81.3333 80Z" fill="#76CACE"/>
<path d="M81.3333 133.333C81.3333 134.07 80.7364 134.667 80 134.667C79.2636 134.667 78.6667 134.07 78.6667 133.333C78.6667 132.597 79.2636 132 80 132C80.7364 132 81.3333 132.597 81.3333 133.333Z" fill="#76CACE"/>
<path d="M134.667 80C134.667 80.7364 134.07 81.3333 133.333 81.3333C132.597 81.3333 132 80.7364 132 80C132 79.2636 132.597 78.6667 133.333 78.6667C134.07 78.6667 134.667 79.2636 134.667 80Z" fill="#76CACE"/>
<path d="M134.667 133.333C134.667 134.07 134.07 134.667 133.333 134.667C132.597 134.667 132 134.07 132 133.333C132 132.597 132.597 132 133.333 132C134.07 132 134.667 132.597 134.667 133.333Z" fill="#76CACE"/>
<path d="M81.3333 106.667C81.3333 107.403 80.7364 108 80 108C79.2636 108 78.6667 107.403 78.6667 106.667C78.6667 105.93 79.2636 105.333 80 105.333C80.7364 105.333 81.3333 105.93 81.3333 106.667Z" fill="#76CACE"/>
<path d="M134.667 106.667C134.667 107.403 134.07 108 133.333 108C132.597 108 132 107.403 132 106.667C132 105.93 132.597 105.333 133.333 105.333C134.07 105.333 134.667 105.93 134.667 106.667Z" fill="#76CACE"/>
<path d="M81.3333 93.3333C81.3333 94.0697 80.7364 94.6667 80 94.6667C79.2636 94.6667 78.6667 94.0697 78.6667 93.3333C78.6667 92.597 79.2636 92 80 92C80.7364 92 81.3333 92.597 81.3333 93.3333Z" fill="#76CACE"/>
<path d="M81.3333 146.667C81.3333 147.403 80.7364 148 80 148C79.2636 148 78.6667 147.403 78.6667 146.667C78.6667 145.93 79.2636 145.333 80 145.333C80.7364 145.333 81.3333 145.93 81.3333 146.667Z" fill="#76CACE"/>
<path d="M134.667 93.3333C134.667 94.0697 134.07 94.6667 133.333 94.6667C132.597 94.6667 132 94.0697 132 93.3333C132 92.597 132.597 92 133.333 92C134.07 92 134.667 92.597 134.667 93.3333Z" fill="#76CACE"/>
<path d="M134.667 146.667C134.667 147.403 134.07 148 133.333 148C132.597 148 132 147.403 132 146.667C132 145.93 132.597 145.333 133.333 145.333C134.07 145.333 134.667 145.93 134.667 146.667Z" fill="#76CACE"/>
<path d="M81.3333 120C81.3333 120.736 80.7364 121.333 80 121.333C79.2636 121.333 78.6667 120.736 78.6667 120C78.6667 119.264 79.2636 118.667 80 118.667C80.7364 118.667 81.3333 119.264 81.3333 120Z" fill="#76CACE"/>
<path d="M134.667 120C134.667 120.736 134.07 121.333 133.333 121.333C132.597 121.333 132 120.736 132 120C132 119.264 132.597 118.667 133.333 118.667C134.07 118.667 134.667 119.264 134.667 120Z" fill="#76CACE"/>
<path d="M94.6667 80C94.6667 80.7364 94.0697 81.3333 93.3333 81.3333C92.597 81.3333 92 80.7364 92 80C92 79.2636 92.597 78.6667 93.3333 78.6667C94.0697 78.6667 94.6667 79.2636 94.6667 80Z" fill="#76CACE"/>
<path d="M94.6667 133.333C94.6667 134.07 94.0697 134.667 93.3333 134.667C92.597 134.667 92 134.07 92 133.333C92 132.597 92.597 132 93.3333 132C94.0697 132 94.6667 132.597 94.6667 133.333Z" fill="#76CACE"/>
<path d="M148 80C148 80.7364 147.403 81.3333 146.667 81.3333C145.93 81.3333 145.333 80.7364 145.333 80C145.333 79.2636 145.93 78.6667 146.667 78.6667C147.403 78.6667 148 79.2636 148 80Z" fill="#76CACE"/>
<path d="M148 133.333C148 134.07 147.403 134.667 146.667 134.667C145.93 134.667 145.333 134.07 145.333 133.333C145.333 132.597 145.93 132 146.667 132C147.403 132 148 132.597 148 133.333Z" fill="#76CACE"/>
<path d="M94.6667 106.667C94.6667 107.403 94.0697 108 93.3333 108C92.597 108 92 107.403 92 106.667C92 105.93 92.597 105.333 93.3333 105.333C94.0697 105.333 94.6667 105.93 94.6667 106.667Z" fill="#76CACE"/>
<path d="M148 106.667C148 107.403 147.403 108 146.667 108C145.93 108 145.333 107.403 145.333 106.667C145.333 105.93 145.93 105.333 146.667 105.333C147.403 105.333 148 105.93 148 106.667Z" fill="#76CACE"/>
<path d="M94.6667 93.3333C94.6667 94.0697 94.0697 94.6667 93.3333 94.6667C92.597 94.6667 92 94.0697 92 93.3333C92 92.597 92.597 92 93.3333 92C94.0697 92 94.6667 92.597 94.6667 93.3333Z" fill="#76CACE"/>
<path d="M94.6667 146.667C94.6667 147.403 94.0697 148 93.3333 148C92.597 148 92 147.403 92 146.667C92 145.93 92.597 145.333 93.3333 145.333C94.0697 145.333 94.6667 145.93 94.6667 146.667Z" fill="#76CACE"/>
<path d="M148 93.3333C148 94.0697 147.403 94.6667 146.667 94.6667C145.93 94.6667 145.333 94.0697 145.333 93.3333C145.333 92.597 145.93 92 146.667 92C147.403 92 148 92.597 148 93.3333Z" fill="#76CACE"/>
<path d="M148 146.667C148 147.403 147.403 148 146.667 148C145.93 148 145.333 147.403 145.333 146.667C145.333 145.93 145.93 145.333 146.667 145.333C147.403 145.333 148 145.93 148 146.667Z" fill="#76CACE"/>
<path d="M94.6667 120C94.6667 120.736 94.0697 121.333 93.3333 121.333C92.597 121.333 92 120.736 92 120C92 119.264 92.597 118.667 93.3333 118.667C94.0697 118.667 94.6667 119.264 94.6667 120Z" fill="#76CACE"/>
<path d="M148 120C148 120.736 147.403 121.333 146.667 121.333C145.93 121.333 145.333 120.736 145.333 120C145.333 119.264 145.93 118.667 146.667 118.667C147.403 118.667 148 119.264 148 120Z" fill="#76CACE"/>
<path d="M108 80C108 80.7364 107.403 81.3333 106.667 81.3333C105.93 81.3333 105.333 80.7364 105.333 80C105.333 79.2636 105.93 78.6667 106.667 78.6667C107.403 78.6667 108 79.2636 108 80Z" fill="#76CACE"/>
<path d="M108 133.333C108 134.07 107.403 134.667 106.667 134.667C105.93 134.667 105.333 134.07 105.333 133.333C105.333 132.597 105.93 132 106.667 132C107.403 132 108 132.597 108 133.333Z" fill="#76CACE"/>
<path d="M108 106.667C108 107.403 107.403 108 106.667 108C105.93 108 105.333 107.403 105.333 106.667C105.333 105.93 105.93 105.333 106.667 105.333C107.403 105.333 108 105.93 108 106.667Z" fill="#76CACE"/>
<path d="M108 93.3333C108 94.0697 107.403 94.6667 106.667 94.6667C105.93 94.6667 105.333 94.0697 105.333 93.3333C105.333 92.597 105.93 92 106.667 92C107.403 92 108 92.597 108 93.3333Z" fill="#76CACE"/>
<path d="M108 146.667C108 147.403 107.403 148 106.667 148C105.93 148 105.333 147.403 105.333 146.667C105.333 145.93 105.93 145.333 106.667 145.333C107.403 145.333 108 145.93 108 146.667Z" fill="#76CACE"/>
<path d="M108 120C108 120.736 107.403 121.333 106.667 121.333C105.93 121.333 105.333 120.736 105.333 120C105.333 119.264 105.93 118.667 106.667 118.667C107.403 118.667 108 119.264 108 120Z" fill="#76CACE"/>
<path d="M121.333 80C121.333 80.7364 120.736 81.3333 120 81.3333C119.264 81.3333 118.667 80.7364 118.667 80C118.667 79.2636 119.264 78.6667 120 78.6667C120.736 78.6667 121.333 79.2636 121.333 80Z" fill="#76CACE"/>
<path d="M121.333 133.333C121.333 134.07 120.736 134.667 120 134.667C119.264 134.667 118.667 134.07 118.667 133.333C118.667 132.597 119.264 132 120 132C120.736 132 121.333 132.597 121.333 133.333Z" fill="#76CACE"/>
<path d="M121.333 106.667C121.333 107.403 120.736 108 120 108C119.264 108 118.667 107.403 118.667 106.667C118.667 105.93 119.264 105.333 120 105.333C120.736 105.333 121.333 105.93 121.333 106.667Z" fill="#76CACE"/>
<path d="M121.333 93.3333C121.333 94.0697 120.736 94.6667 120 94.6667C119.264 94.6667 118.667 94.0697 118.667 93.3333C118.667 92.597 119.264 92 120 92C120.736 92 121.333 92.597 121.333 93.3333Z" fill="#76CACE"/>
<path d="M121.333 146.667C121.333 147.403 120.736 148 120 148C119.264 148 118.667 147.403 118.667 146.667C118.667 145.93 119.264 145.333 120 145.333C120.736 145.333 121.333 145.93 121.333 146.667Z" fill="#76CACE"/>
<path d="M121.333 120C121.333 120.736 120.736 121.333 120 121.333C119.264 121.333 118.667 120.736 118.667 120C118.667 119.264 119.264 118.667 120 118.667C120.736 118.667 121.333 119.264 121.333 120Z" fill="#76CACE"/>
</svg>
