<svg width="38" height="38" viewBox="0 0 38 38" fill="none" xmlns="http://www.w3.org/2000/svg">
<g clip-path="url(#clip0)">
<path d="M37.306 27.558C35.967 25.14 30.103 23.6 24.925 23.308C24.457 22.807 23.982 22.28 23.495 21.726C19.045 16.638 17.243 9.24401 16.57 5.32701C16.49 4.49701 16.402 3.80701 16.328 3.29301C16.268 2.88401 16.142 2.03101 15.255 2.03101C14.971 2.03101 14.697 2.15301 14.502 2.37001C14.186 2.73101 14.233 3.11901 14.289 3.56701C14.352 4.08101 14.447 4.76901 14.582 5.55401C14.961 9.53101 15.14 17.103 12.079 23.118C11.76 23.745 11.442 24.347 11.126 24.921C5.398 26.587 0.776003 29.558 0.0990032 32.022C-0.145997 32.914 0.0670031 33.769 0.700003 34.431C1.437 35.201 2.307 35.591 3.286 35.591C5.996 35.591 9.085 32.573 12.467 26.624C13.973 26.228 15.468 25.952 16.913 25.806C17.476 25.749 18.387 25.63 18.947 25.544C20.49 25.306 22.236 25.21 24.03 25.269C28.182 29.585 31.577 31.773 34.121 31.773C35.487 31.772 36.618 31.106 37.304 29.898C37.726 29.15 37.728 28.318 37.306 27.558ZM3.285 33.591C2.861 33.591 2.499 33.419 2.144 33.048C1.999 32.897 1.967 32.767 2.027 32.553C2.376 31.284 5.308 29.109 9.593 27.53C7.172 31.35 4.855 33.591 3.285 33.591ZM18.64 23.57C18.108 23.652 17.244 23.764 16.71 23.82C15.739 23.916 14.741 24.069 13.734 24.275C13.776 24.193 13.818 24.11 13.86 24.027C15.361 21.078 16.291 17.542 16.635 13.489C18.012 17.343 19.808 20.549 21.989 23.043C22.053 23.117 22.12 23.192 22.184 23.268C20.925 23.298 19.737 23.401 18.64 23.57ZM35.56 28.916C35.228 29.504 34.756 29.777 34.079 29.777H34.078C32.488 29.777 30.043 28.272 27.116 25.512C31.646 26.081 34.963 27.452 35.558 28.527C35.644 28.683 35.644 28.766 35.56 28.916Z" fill="white"/>
</g>
<defs>
<clipPath id="clip0">
<rect width="37.622" height="37.622" fill="white"/>
</clipPath>
</defs>
</svg>
