<svg xmlns="http://www.w3.org/2000/svg" viewBox="0 0 500 500"><g id="Logo_Principal_Negativo" data-name="Logo Principal Negativo"><text id="mais" transform="translate(58.32 446.06) scale(1 0.92)" style="font-size:28.651918411254883px;fill:#fff;font-family:Inter-Light, Inter;font-weight:300;letter-spacing:0.35000519576241473em">mais</text><g id="esporte"><path d="M61,495.91V461.54a3.51,3.51,0,0,1,3.51-3.5H86.86a3.51,3.51,0,0,1,3.51,3.5v.2a3.51,3.51,0,0,1-3.51,3.51H73.73a3.5,3.5,0,0,0-3.5,3.5v2.85a3.51,3.51,0,0,0,3.5,3.51H85.35a3.51,3.51,0,0,1,3.51,3.5v.21a3.51,3.51,0,0,1-3.51,3.5H73.73a3.51,3.51,0,0,0-3.5,3.51v2.87a3.5,3.5,0,0,0,3.5,3.5H87a3.51,3.51,0,0,1,3.51,3.51v.2a3.5,3.5,0,0,1-3.51,3.5H64.53A3.5,3.5,0,0,1,61,495.91Z" style="fill:#fff"/><path d="M141.91,469.94a3.34,3.34,0,0,1-3.08-1.78,5,5,0,0,0-1.72-2,9,9,0,0,0-5.25-1.36,10.61,10.61,0,0,0-3.81.6,5.31,5.31,0,0,0-2.37,1.65,3.74,3.74,0,0,0-.82,2.38,3.22,3.22,0,0,0,.5,1.94,4.79,4.79,0,0,0,1.5,1.43,11.61,11.61,0,0,0,2.21,1,22.23,22.23,0,0,0,2.68.73l3.91.89a29.53,29.53,0,0,1,5.24,1.62,16.06,16.06,0,0,1,4.12,2.48,10.59,10.59,0,0,1,2.71,3.48,10.47,10.47,0,0,1,1,4.59,11,11,0,0,1-2,6.57,12.93,12.93,0,0,1-5.78,4.31,24.44,24.44,0,0,1-9.1,1.52,25.06,25.06,0,0,1-9.17-1.53,13.32,13.32,0,0,1-6.08-4.56,11.31,11.31,0,0,1-1.53-3,3.51,3.51,0,0,1,3.37-4.54h2a3.4,3.4,0,0,1,3.18,2.05,5.27,5.27,0,0,0,.82,1.42,6.81,6.81,0,0,0,3,2.08,12.37,12.37,0,0,0,4.27.7,11.62,11.62,0,0,0,4.07-.65,6.2,6.2,0,0,0,2.69-1.8,4,4,0,0,0,1-2.64,3.39,3.39,0,0,0-.86-2.35,6.76,6.76,0,0,0-2.51-1.61,27.28,27.28,0,0,0-4-1.22l-4.75-1.13a20.22,20.22,0,0,1-8.69-4,9,9,0,0,1-3.17-7.29,10.42,10.42,0,0,1,2.11-6.57,14.11,14.11,0,0,1,5.88-4.38,21.77,21.77,0,0,1,8.51-1.58,21.17,21.17,0,0,1,8.48,1.58,13.26,13.26,0,0,1,5.64,4.38,11.29,11.29,0,0,1,.92,1.51,3.51,3.51,0,0,1-3.2,5Z" style="fill:#fff"/><path d="M172.86,495.91V461.54a3.5,3.5,0,0,1,3.5-3.5H190a18.34,18.34,0,0,1,8.44,1.78,12.79,12.79,0,0,1,5.33,4.95,14.21,14.21,0,0,1,1.84,7.29,14,14,0,0,1-1.87,7.27,12.67,12.67,0,0,1-5.41,4.91,19.16,19.16,0,0,1-8.56,1.76h-7.45a3.51,3.51,0,0,1-3.51-3.51h0a3.51,3.51,0,0,1,3.51-3.5h6a9.64,9.64,0,0,0,4.39-.88,5.92,5.92,0,0,0,2.59-2.45,8,8,0,0,0,0-7.21,5.79,5.79,0,0,0-2.6-2.4,10,10,0,0,0-4.43-.86h-2.7a3.51,3.51,0,0,0-3.51,3.5v27.22a3.5,3.5,0,0,1-3.5,3.5h-2.2A3.5,3.5,0,0,1,172.86,495.91Z" style="fill:#fff"/><path d="M269.64,478.73A23,23,0,0,1,267,490.24a18.3,18.3,0,0,1-7.32,7.25,22.9,22.9,0,0,1-20.81,0,18.16,18.16,0,0,1-7.29-7.25,26,26,0,0,1,0-23,18.14,18.14,0,0,1,7.29-7.24,22.9,22.9,0,0,1,20.81,0,18.27,18.27,0,0,1,7.32,7.24A23.07,23.07,0,0,1,269.64,478.73Zm-9.34,0a17.88,17.88,0,0,0-1.37-7.4,10.15,10.15,0,0,0-3.86-4.56,11.66,11.66,0,0,0-11.65,0,10.08,10.08,0,0,0-3.86,4.56,20.5,20.5,0,0,0,0,14.79,10.16,10.16,0,0,0,3.86,4.57,11.72,11.72,0,0,0,11.65,0,10.23,10.23,0,0,0,3.86-4.57A17.86,17.86,0,0,0,260.3,478.73Z" style="fill:#fff"/><path d="M294.41,495.91V461.54a3.51,3.51,0,0,1,3.51-3.5h13.67A19.55,19.55,0,0,1,320,459.7a12.31,12.31,0,0,1,5.34,4.71,13.59,13.59,0,0,1,1.83,7.14,13,13,0,0,1-1.87,7.09,12,12,0,0,1-5.41,4.53,21,21,0,0,1-8.56,1.58h-8a3.51,3.51,0,0,1-3.51-3.51v0a3.51,3.51,0,0,1,3.51-3.51h6.51a12,12,0,0,0,4.38-.68,5.3,5.3,0,0,0,2.61-2.06,6.38,6.38,0,0,0,.86-3.42,6.59,6.59,0,0,0-.86-3.47,5.43,5.43,0,0,0-2.62-2.15,11.47,11.47,0,0,0-4.41-.74h-2.71a3.5,3.5,0,0,0-3.5,3.5v27.22a3.5,3.5,0,0,1-3.51,3.5h-2.19A3.5,3.5,0,0,1,294.41,495.91Zm24.53-13.57,6.8,11.82a3.51,3.51,0,0,1-3,5.25h-2.06a3.49,3.49,0,0,1-3.05-1.78l-6.65-11.82a3.5,3.5,0,0,1,3.05-5.22h1.91A3.5,3.5,0,0,1,318.94,482.34Z" style="fill:#fff"/><path d="M350,461.74v-.2a3.5,3.5,0,0,1,3.5-3.5h28.76a3.51,3.51,0,0,1,3.51,3.5v.2a3.51,3.51,0,0,1-3.51,3.51H376a3.5,3.5,0,0,0-3.5,3.5v27.16a3.5,3.5,0,0,1-3.51,3.5h-2.09a3.5,3.5,0,0,1-3.51-3.5V468.75a3.5,3.5,0,0,0-3.5-3.5h-6.33A3.51,3.51,0,0,1,350,461.74Z" style="fill:#fff"/><path d="M409.67,495.91V461.54a3.51,3.51,0,0,1,3.51-3.5h22.33a3.51,3.51,0,0,1,3.51,3.5v.2a3.51,3.51,0,0,1-3.51,3.51H422.38a3.5,3.5,0,0,0-3.5,3.5v2.85a3.51,3.51,0,0,0,3.5,3.51H434a3.51,3.51,0,0,1,3.51,3.5v.21a3.51,3.51,0,0,1-3.51,3.5H422.38a3.51,3.51,0,0,0-3.5,3.51v2.87a3.5,3.5,0,0,0,3.5,3.5H435.6a3.51,3.51,0,0,1,3.5,3.51v.2a3.5,3.5,0,0,1-3.5,3.5H413.18A3.5,3.5,0,0,1,409.67,495.91Z" style="fill:#fff"/></g><g id="simbolo"><path id="_esq" data-name="+ esq" d="M232.27,417.41a17.78,17.78,0,0,0,17.79-17.78V222a13.26,13.26,0,0,0-13.26-13.26H58.9a17.79,17.79,0,0,0-17.79,17.54v.47a16.1,16.1,0,0,0,8.6,14.49l98.14,45.41a49.77,49.77,0,0,1,24.27,24.31l45.11,97.86a16.13,16.13,0,0,0,14.27,8.62Z" style="fill:#fff"/><path id="_dir" data-name="+ dir" d="M267.73,0a17.78,17.78,0,0,0-17.79,17.79V195.44a13.26,13.26,0,0,0,13.26,13.27H441.1a17.8,17.8,0,0,0,17.79-17.54v-.48a16.11,16.11,0,0,0-8.6-14.49l-98.14-45.41a49.73,49.73,0,0,1-24.27-24.31L282.77,8.62A16.13,16.13,0,0,0,268.5,0Z" style="fill:#fff"/></g></g></svg>