<?xml version="1.0" encoding="utf-8"?>
<!-- Generator: Adobe Illustrator 24.3.0, SVG Export Plug-In . SVG Version: 6.00 Build 0)  -->
<svg version="1.1" id="Outline" xmlns="http://www.w3.org/2000/svg" xmlns:xlink="http://www.w3.org/1999/xlink" x="0px" y="0px"
	 viewBox="0 0 512 512" style="enable-background:new 0 0 512 512;" xml:space="preserve">
<style type="text/css">
	.st0{fill:#286B89;}
</style>
<path class="st0" d="M469.3,34.1h-51.2v-8.5c0-14.1-11.5-25.6-25.6-25.6c-14.1,0-25.6,11.5-25.6,25.6v8.5h-85.3v-8.5
	C281.6,11.5,270.1,0,256,0s-25.6,11.5-25.6,25.6v8.5h-85.3v-8.5c0-14.1-11.5-25.6-25.6-25.6S93.9,11.5,93.9,25.6v8.5H42.7
	C19.1,34.2,0,53.2,0,76.8v392.5C0,492.9,19.1,512,42.7,512h426.7c23.6,0,42.6-19.1,42.7-42.7V76.8C512,53.2,492.9,34.2,469.3,34.1z
	 M384,25.6c0-4.7,3.8-8.5,8.5-8.5s8.5,3.8,8.5,8.5v51.2c0,4.7-3.8,8.5-8.5,8.5s-8.5-3.8-8.5-8.5V25.6z M247.5,25.6
	c0-4.7,3.8-8.5,8.5-8.5s8.5,3.8,8.5,8.5v51.2c0,4.7-3.8,8.5-8.5,8.5s-8.5-3.8-8.5-8.5V25.6z M110.9,25.6c0-4.7,3.8-8.5,8.5-8.5
	c4.7,0,8.5,3.8,8.5,8.5v51.2c0,4.7-3.8,8.5-8.5,8.5c-4.7,0-8.5-3.8-8.5-8.5V25.6z M42.7,51.2h51.2v25.6c0,14.1,11.5,25.6,25.6,25.6
	s25.6-11.5,25.6-25.6V51.2h85.3v25.6c0,14.1,11.5,25.6,25.6,25.6s25.6-11.5,25.6-25.6V51.2h85.3v25.6c0,14.1,11.5,25.6,25.6,25.6
	c14.1,0,25.6-11.5,25.6-25.6V51.2h51.2c14.1,0,25.6,11.5,25.6,25.6v59.7H17.1V76.8C17.1,62.7,28.5,51.2,42.7,51.2z M469.3,494.9
	H42.7c-14.1,0-25.6-11.5-25.6-25.6V153.6h477.9v315.7C494.9,483.5,483.5,494.9,469.3,494.9z"/>
<path class="st0" d="M452.3,213.3h-34.1c-4.7,0-8.5,3.8-8.5,8.5V256c0,4.7,3.8,8.5,8.5,8.5h34.1c4.7,0,8.5-3.8,8.5-8.5v-34.1
	C460.8,217.2,457,213.3,452.3,213.3z M443.7,247.5h-17.1v-17.1h17.1V247.5z"/>
<path class="st0" d="M281.6,384h-34.1c-4.7,0-8.5,3.8-8.5,8.5v34.1c0,4.7,3.8,8.5,8.5,8.5h34.1c4.7,0,8.5-3.8,8.5-8.5v-34.1
	C290.1,387.8,286.3,384,281.6,384z M273.1,418.1H256v-17.1h17.1V418.1z"/>
<path class="st0" d="M196.3,213.3h-34.1c-4.7,0-8.5,3.8-8.5,8.5V256c0,4.7,3.8,8.5,8.5,8.5h34.1c4.7,0,8.5-3.8,8.5-8.5v-34.1
	C204.8,217.2,201,213.3,196.3,213.3z M187.7,247.5h-17.1v-17.1h17.1V247.5z"/>
<path class="st0" d="M110.9,298.7H76.8c-4.7,0-8.5,3.8-8.5,8.5v34.1c0,4.7,3.8,8.5,8.5,8.5h34.1c4.7,0,8.5-3.8,8.5-8.5v-34.1
	C119.5,302.5,115.6,298.7,110.9,298.7z M102.4,332.8H85.3v-17.1h17.1V332.8z"/>
<path class="st0" d="M196.3,298.7h-34.1c-4.7,0-8.5,3.8-8.5,8.5v34.1c0,4.7,3.8,8.5,8.5,8.5h34.1c4.7,0,8.5-3.8,8.5-8.5v-34.1
	C204.8,302.5,201,298.7,196.3,298.7z M187.7,332.8h-17.1v-17.1h17.1V332.8z"/>
<path class="st0" d="M110.9,384H76.8c-4.7,0-8.5,3.8-8.5,8.5v34.1c0,4.7,3.8,8.5,8.5,8.5h34.1c4.7,0,8.5-3.8,8.5-8.5v-34.1
	C119.5,387.8,115.6,384,110.9,384z M102.4,418.1H85.3v-17.1h17.1V418.1z"/>
<path class="st0" d="M196.3,384h-34.1c-4.7,0-8.5,3.8-8.5,8.5v34.1c0,4.7,3.8,8.5,8.5,8.5h34.1c4.7,0,8.5-3.8,8.5-8.5v-34.1
	C204.8,387.8,201,384,196.3,384z M187.7,418.1h-17.1v-17.1h17.1V418.1z"/>
<path class="st0" d="M376.8,248.5l-42.7-6.5l-19.2-40.8c-2-4.3-7.1-6.1-11.4-4.1c-1.8,0.8-3.3,2.3-4.1,4.1L280.3,242l-42.7,6.5
	c-4.7,0.7-7.9,5.1-7.2,9.7c0.3,1.8,1.1,3.4,2.3,4.7l31.1,31.9l-7.4,45.1c-0.8,4.7,2.4,9,7.1,9.8c1.9,0.3,3.8,0,5.5-0.9l38.1-21
	l38.1,21c4.1,2.3,9.3,0.8,11.6-3.3c0.9-1.7,1.3-3.6,1-5.5l-7.4-45.1l31.1-31.9c3.3-3.4,3.2-8.8-0.1-12.1
	C380.2,249.6,378.5,248.8,376.8,248.5L376.8,248.5z M335.2,286c-1.9,1.9-2.8,4.7-2.3,7.3l5.2,32.1l-26.8-14.8
	c-2.6-1.4-5.7-1.4-8.3,0l-26.8,14.8l5.2-32.1c0.4-2.7-0.4-5.4-2.3-7.3l-22.5-23.1l30.8-4.7c2.8-0.4,5.2-2.2,6.4-4.8l13.4-28.5
	l13.4,28.5c1.2,2.6,3.6,4.4,6.4,4.8l30.8,4.7L335.2,286z"/>
<path class="st0" d="M452.3,298.7h-34.1c-4.7,0-8.5,3.8-8.5,8.5v34.1c0,4.7,3.8,8.5,8.5,8.5h34.1c4.7,0,8.5-3.8,8.5-8.5v-34.1
	C460.8,302.5,457,298.7,452.3,298.7z M443.7,332.8h-17.1v-17.1h17.1V332.8z"/>
<path class="st0" d="M452.3,384h-34.1c-4.7,0-8.5,3.8-8.5,8.5v34.1c0,4.7,3.8,8.5,8.5,8.5h34.1c4.7,0,8.5-3.8,8.5-8.5v-34.1
	C460.8,387.8,457,384,452.3,384z M443.7,418.1h-17.1v-17.1h17.1V418.1z"/>
<path class="st0" d="M366.9,384h-34.1c-4.7,0-8.5,3.8-8.5,8.5v34.1c0,4.7,3.8,8.5,8.5,8.5h34.1c4.7,0,8.5-3.8,8.5-8.5v-34.1
	C375.5,387.8,371.6,384,366.9,384z M358.4,418.1h-17.1v-17.1h17.1V418.1z"/>
</svg>
