<svg width="38" height="38" viewBox="0 0 38 38" fill="none" xmlns="http://www.w3.org/2000/svg">
<path d="M19 0C11.0198 0 4.52734 6.49243 4.52734 14.4727C4.52734 19.6243 6.09447 21.6903 13.6252 31.6179C14.9324 33.3412 16.4141 35.2944 18.1094 37.5547C18.3196 37.835 18.6496 38 19.0001 38C19.3505 38 19.6804 37.8349 19.8907 37.5545C21.5761 35.3065 23.0513 33.3607 24.353 31.6439C31.9017 21.6874 33.4727 19.6154 33.4727 14.4727C33.4727 6.49243 26.9802 0 19 0ZM22.5788 30.2987C21.5097 31.7087 20.3238 33.2729 18.9998 35.033C17.6667 33.2617 16.474 31.6893 15.3991 30.2722C8.07381 20.6154 6.75391 18.8754 6.75391 14.4727C6.75391 7.72016 12.2475 2.22656 19 2.22656C25.7525 2.22656 31.2461 7.72016 31.2461 14.4727C31.2461 18.8668 29.9228 20.6122 22.5788 30.2987Z" fill="#76CACE"/>
<path d="M19 6.67969C14.703 6.67969 11.207 10.1756 11.207 14.4727C11.207 18.7697 14.703 22.2656 19 22.2656C23.297 22.2656 26.793 18.7697 26.793 14.4727C26.793 10.1756 23.297 6.67969 19 6.67969ZM19 20.0391C15.9307 20.0391 13.4336 17.542 13.4336 14.4727C13.4336 11.4033 15.9307 8.90625 19 8.90625C22.0693 8.90625 24.5664 11.4033 24.5664 14.4727C24.5664 17.542 22.0693 20.0391 19 20.0391Z" fill="#76CACE"/>
</svg>
