<?xml version="1.0" encoding="utf-8"?>
<!-- Generator: Adobe Illustrator 24.3.0, SVG Export Plug-In . SVG Version: 6.00 Build 0)  -->
<svg version="1.1" id="Layer_1" xmlns="http://www.w3.org/2000/svg" xmlns:xlink="http://www.w3.org/1999/xlink" x="0px" y="0px"
	 viewBox="0 0 512 512" style="enable-background:new 0 0 512 512;" xml:space="preserve">
<style type="text/css">
	.st0{fill:#286B89;}
</style>
<g id="_x33_-Picture">
	<path class="st0" d="M455.1,452.3H57.4c-31.5,0-57.1-25.6-57.1-57.1V116.9c0-31.5,25.6-57.1,57.1-57.1h397.7
		c31.5,0,57.1,25.6,57.1,57.1v278.3C512.3,426.6,486.6,452.3,455.1,452.3z M57.4,76.8c-22.1,0-40.1,18-40.1,40.1v278.3
		c0,22.1,18,40.1,40.1,40.1h397.7c22.1,0,40.1-18,40.1-40.1V116.9c0-22.1-18-40.1-40.1-40.1H57.4L57.4,76.8z"/>
	<path class="st0" d="M333.1,247.5c-28.2,0-51.2-23-51.2-51.2s23-51.2,51.2-51.2c28.2,0,51.2,23,51.2,51.2S361.3,247.5,333.1,247.5z
		 M333.1,162.1c-18.8,0-34.1,15.3-34.1,34.1s15.3,34.1,34.1,34.1c18.8,0,34.1-15.3,34.1-34.1S351.9,162.1,333.1,162.1z"/>
	<path class="st0" d="M455.1,452.3H260c-3.4,0-6.4-2-7.8-5c-1.4-3.1-0.8-6.7,1.4-9.2l132.7-149.3c3.2-3.6,9.5-3.6,12.8,0L506,408.9
		c2.2,2.5,2.8,6,1.4,9.1C498.3,438.8,477.8,452.3,455.1,452.3z M279,435.2h176.1c14.1,0,27.1-7.4,34.2-19.3l-96.6-108.7L279,435.2z"
		/>
	<path class="st0" d="M260,452.3H57.4c-31.5,0-57.1-25.6-57.1-57.1v-52.7c0-2.1,0.8-4.1,2.2-5.7l145.1-163.2c3.2-3.6,9.5-3.6,12.8,0
		l170.7,192c2.9,3.2,2.9,8.1,0,11.3l-64.5,72.5C264.8,451.2,262.5,452.3,260,452.3z M17.3,345.6v49.5c0,22.1,18,40.1,40.1,40.1
		h198.8l56.9-64L153.9,192L17.3,345.6z"/>
</g>
</svg>
