<svg width="80" height="80" viewBox="0 0 80 80" fill="none" xmlns="http://www.w3.org/2000/svg">
<g clip-path="url(#clip0_102_193)">
<path d="M40 0.176392C17.9433 0.176392 0 18.1197 0 40.1764C0 62.2331 17.9433 80.1764 40 80.1764C62.0567 80.1764 80 62.2331 80 40.1764C80 18.1197 62.0567 0.176392 40 0.176392ZM40 76.8431C19.7833 76.8431 3.33333 60.3931 3.33333 40.1764C3.33333 19.9597 19.7833 3.50972 40 3.50972C60.2167 3.50972 76.6667 19.9597 76.6667 40.1764C76.6667 60.3931 60.2167 76.8431 40 76.8431ZM58.4067 36.3297C60.5267 38.4497 60.5267 41.8997 58.4067 44.0231L42.3967 60.0331L40.04 57.6764L55.8733 41.8431H20V38.5097H55.8733L40.04 22.6764L42.3967 20.3197L58.4067 36.3297Z" fill="white"/>
</g>
<defs>
<clipPath id="clip0_102_193">
<rect width="80" height="80" fill="white"/>
</clipPath>
</defs>
</svg>
