<svg width="59" height="60" viewBox="0 0 59 60" fill="none" xmlns="http://www.w3.org/2000/svg">
<g clip-path="url(#clip0_102_158)">
<path d="M55.628 32.2446C56.0183 31.6257 56.2452 30.894 56.2452 30.1098C56.2452 27.8964 54.4444 26.0957 52.231 26.0957H45.923V19.5422L53.4153 15.2411C55.3102 14.1511 56.0117 11.7043 54.897 9.76202C53.796 7.84222 51.3377 7.17633 49.4166 8.27827L40.7895 13.2316C39.004 14.2567 37.8947 16.1729 37.8947 18.2319V22.6549H35.2178V19.5962C35.2178 16.0206 33.2739 12.9511 30.4178 11.3072C31.3825 10.199 31.9687 8.75298 31.9687 7.17174C31.9687 3.69353 29.1389 0.86377 25.6607 0.86377C22.1825 0.86377 19.3527 3.69353 19.3527 7.17174C19.3527 8.75172 19.938 10.1967 20.9011 11.3045C17.9709 12.9825 16.1035 16.1169 16.1035 19.5962V22.7703C14.7052 23.0552 13.4905 23.8506 12.6628 24.9527C11.6157 23.5585 9.94913 22.6549 8.0752 22.6549C4.91319 22.6549 2.34068 25.2274 2.34068 28.3895C2.34068 29.7593 2.8241 31.0182 3.62854 32.0055C1.56641 32.5735 0.046875 34.4644 0.046875 36.7045V39.5718C0.046875 42.1632 2.07976 44.288 4.63449 44.4369V55.3417C4.63449 57.5551 6.43524 59.3559 8.64865 59.3559C10.8621 59.3559 12.6628 57.5551 12.6628 55.3417V44.4461H17.575C18.2083 44.4461 18.7219 43.9325 18.7219 43.2992C18.7219 42.6659 18.2083 42.1523 17.575 42.1523C13.5716 42.1523 8.86932 42.1523 4.92122 42.1523C3.49837 42.1523 2.34068 40.9946 2.34068 39.5718V36.7045C2.34068 35.2817 3.49837 34.124 4.92122 34.124H29.8469C30.4802 34.124 30.9938 33.6104 30.9938 32.9771C30.9938 32.3438 30.4802 31.8302 29.8469 31.8302H17.2504C15.3532 31.8302 13.8097 30.2867 13.8097 28.3895C13.8097 26.4923 15.3532 24.9488 17.2504 24.9488H39.0416C39.6749 24.9488 40.1885 24.4352 40.1885 23.8018V18.232C40.1885 16.9921 40.8565 15.8383 41.9317 15.2209L50.5582 10.2678C51.3828 9.79494 52.4339 10.0775 52.9072 10.9034C53.3822 11.731 53.09 12.7821 52.2724 13.2523L44.2051 17.8835C43.8489 18.088 43.6292 18.4675 43.6292 18.8782V26.8698C43.6292 29.605 41.404 31.8302 38.6689 31.8302C37.5698 31.8302 35.4683 31.8302 34.4345 31.8302C33.8012 31.8302 33.2876 32.3438 33.2876 32.9771C33.2876 33.6104 33.8012 34.124 34.4345 34.124H53.6646C55.0875 34.124 56.2452 35.2817 56.2452 36.7045V39.5718C56.2452 40.9946 55.0875 42.1523 53.6646 42.1523C52.7986 42.1523 23.0276 42.1523 22.1626 42.1523C21.5293 42.1523 21.0157 42.6659 21.0157 43.2992C21.0157 43.9325 21.5293 44.4461 22.1626 44.4461H45.923V55.3417C45.923 57.5551 47.7238 59.3559 49.9372 59.3559C52.1506 59.3559 53.9514 57.5551 53.9514 55.3417V44.4369C56.5061 44.288 58.539 42.1631 58.539 39.5718V36.7045C58.539 34.7151 57.3405 33.0014 55.628 32.2446ZM10.369 44.4461V55.3417C10.369 56.2903 9.59726 57.0621 8.64865 57.0621C7.70005 57.0621 6.9283 56.2903 6.9283 55.3417V44.4461H10.369ZM8.0752 24.9488C9.97241 24.9488 11.5159 26.4923 11.5159 28.3895C11.5159 30.2867 9.97241 31.8302 8.0752 31.8302C6.17799 31.8302 4.63449 30.2867 4.63449 28.3895C4.63449 26.4923 6.17799 24.9488 8.0752 24.9488ZM25.6607 3.15758C27.8741 3.15758 29.6748 4.95833 29.6748 7.17174C29.6748 9.38515 27.8741 11.1859 25.6607 11.1859C23.4473 11.1859 21.6465 9.38515 21.6465 7.17174C21.6465 4.95833 23.4473 3.15758 25.6607 3.15758ZM28.9041 22.6549C29.0314 22.296 29.1014 21.9101 29.1014 21.508C29.1014 19.6108 27.5579 18.0673 25.6607 18.0673H24.5138V16.9204C24.5138 16.2871 24.0002 15.7735 23.3669 15.7735C22.7336 15.7735 22.22 16.2871 22.22 16.9204V19.2142C22.22 19.8476 22.7336 20.3611 23.3669 20.3611H25.6607C26.2931 20.3611 26.8076 20.8756 26.8076 21.508C26.8076 22.1404 26.2931 22.6549 25.6607 22.6549H18.3973V19.5962C18.3973 16.6129 20.2038 13.9641 22.9382 12.8612C24.6487 13.6829 26.6589 13.6895 28.3826 12.8614C31.0141 13.9287 32.924 16.5042 32.924 19.5962V22.6549H28.9041ZM43.9548 31.8302C44.8425 30.8848 45.4804 29.7029 45.7616 28.3895H52.231C53.1796 28.3895 53.9514 29.1612 53.9514 30.1098C53.9514 31.0584 53.1796 31.8302 52.231 31.8302H43.9548ZM51.6576 55.3417C51.6576 56.2903 50.8858 57.0621 49.9372 57.0621C48.9886 57.0621 48.2168 56.2903 48.2168 55.3417V44.4461H51.6576V55.3417Z" fill="white"/>
</g>
<defs>
<clipPath id="clip0_102_158">
<rect width="58.4921" height="58.4921" fill="white" transform="translate(0.046875 0.86377)"/>
</clipPath>
</defs>
</svg>
