<svg xmlns="http://www.w3.org/2000/svg" width="316.877" height="85.487" viewBox="0 0 316.877 85.487">
  <g id="Group_132" data-name="Group 132" transform="translate(-1990.042 -828.811)">
    <g id="Group_131" data-name="Group 131" transform="translate(1990.042 828.811)">
      <path id="Path_79" data-name="Path 79" d="M2024.645,914.3h-31.794a2.808,2.808,0,0,1-1.986-4.794l37.9-37.894-37.905-38a2.811,2.811,0,0,1,1.991-4.794h31.794a2.809,2.809,0,0,1,1.986.822L2066.62,869.5a2.836,2.836,0,0,1,.828,2,2.8,2.8,0,0,1-.822,1.986l-40,39.99A2.805,2.805,0,0,1,2024.645,914.3Zm-25.014-5.617h23.851l37.181-37.171-37.181-37.082H1999.62l35.107,35.2a2.812,2.812,0,0,1-.005,3.971Z" transform="translate(-1990.042 -828.811)" fill="#db2d1b"/>
      <path id="Path_80" data-name="Path 80" d="M2126.026,909.5l-37.9-38,37.894-37.894a2.808,2.808,0,0,0-1.985-4.794H2092.24a2.807,2.807,0,0,0-1.985.822l-22.028,22.032,3.978,3.965,21.2-21.2h23.852l-33.109,33.108,1.975,1.97a2.836,2.836,0,0,1,.828,2,2.806,2.806,0,0,1-.822,1.986l-1.983,1.983,33.121,33.209H2093.4l-21.265-21.205-3.975,3.975,22.091,22.025a2.8,2.8,0,0,0,1.985.822h31.795a2.811,2.811,0,0,0,1.991-4.794Z" transform="translate(-2009.55 -828.811)" fill="#db2d1b"/>
    </g>
    <path id="Path_101" data-name="Path 101" d="M2.726-10.34A.955.955,0,0,0,1.645-9.306v1.927C1.645-1.833,3.525,0,9.306,0h19.5c5.546,0,7.849-2.256,7.849-7.52v-5.17c0-5.264-2.3-7.52-7.849-7.52H13.583c-1.551,0-2.021-.47-2.021-1.645v-1.833c0-1.175.47-1.645,2.021-1.645H25.239c1.128,0,1.551.47,1.551,1.457v.282a.955.955,0,0,0,1.081,1.034h7.05A.955.955,0,0,0,36-23.594v-1.927c0-5.546-1.927-7.379-7.661-7.379H9.917c-5.546,0-7.849,2.256-7.849,7.52v4.888c0,5.264,2.3,7.52,7.849,7.52H25.145c1.551,0,2.021.47,2.021,1.645v2.115c0,1.175-.47,1.645-2.021,1.645H12.361c-1.081,0-1.5-.47-1.5-1.457v-.282A.976.976,0,0,0,9.776-10.34ZM67.774-32.9H42.394a.955.955,0,0,0-1.081,1.034V-1.034A.955.955,0,0,0,42.394,0h7.285a.991.991,0,0,0,1.128-1.034v-8.977H67.774c5.5,0,7.849-2.256,7.849-7.52V-25.38C75.623-30.644,73.273-32.9,67.774-32.9ZM50.807-25.333H62.98c2.726,0,3.149.423,3.149,2.679v2.4c0,2.256-.423,2.679-3.149,2.679H50.807Zm64.343-.047c0-5.264-2.35-7.52-7.849-7.52H87.232c-5.452,0-7.9,2.256-7.9,7.52V-7.52c0,5.264,2.444,7.52,7.9,7.52H107.3c5.5,0,7.849-2.256,7.849-7.52Zm-9.494,14.805c0,2.538-.517,3.008-3.619,3.008H92.449c-3.055,0-3.619-.47-3.619-3.008v-11.75c0-2.538.564-3.008,3.619-3.008h9.588c3.1,0,3.619.47,3.619,3.008ZM147.345-32.9H121.73a.955.955,0,0,0-1.081,1.034V-1.034A.955.955,0,0,0,121.73,0h7.285a.991.991,0,0,0,1.128-1.034v-9.353h6.58L144.807-.8a1.925,1.925,0,0,0,1.786.8h9.259a.594.594,0,0,0,.376-1.034L147.2-10.857h.141c5.546,0,7.849-2.726,7.849-7.99V-25.38C155.194-30.644,152.891-32.9,147.345-32.9Zm-17.2,7.567h12.408c2.726,0,3.149.423,3.149,2.679v2.021c0,2.256-.423,2.679-3.149,2.679H130.143Zm40.138,24.3A.955.955,0,0,0,171.362,0h7.332a.976.976,0,0,0,1.081-1.034v-24.3h11.233a.955.955,0,0,0,1.081-1.034v-5.5a.955.955,0,0,0-1.081-1.034h-31.96a.955.955,0,0,0-1.081,1.034v5.5a.955.955,0,0,0,1.081,1.034h11.233Z" transform="translate(2114.83 885.276)" fill="#fff"/>
  </g>
</svg>
